<svg xmlns="http://www.w3.org/2000/svg" xmlns:xlink="http://www.w3.org/1999/xlink" width="34.425" height="12.869" viewBox="0 0 34.425 12.869">
  <defs>
    <linearGradient id="linear-gradient" x1="1" x2="0.302" y2="0.5" gradientUnits="objectBoundingBox">
      <stop offset="0" stop-color="#fd4250"/>
      <stop offset="1" stop-color="#6a48dd"/>
    </linearGradient>
  </defs>
  <g id="Group_1" data-name="Group 1" transform="translate(-353.629 -42.318)">
    <path id="Path" d="M.034,10.353q.578-.459.527-.425Q2.227,8.551,3.188,7.667A10.874,10.874,0,0,0,4.811,5.814a3.348,3.348,0,0,0,.663-1.887,1.661,1.661,0,0,0-.323-1.088,1.184,1.184,0,0,0-.969-.391,1.2,1.2,0,0,0-1.012.484A2.234,2.234,0,0,0,2.805,4.3H0A4.815,4.815,0,0,1,.621,1.887,3.6,3.6,0,0,1,2.168.459,4.885,4.885,0,0,1,4.3,0,4.119,4.119,0,0,1,7.352,1.037a3.673,3.673,0,0,1,1.028,2.7A5.3,5.3,0,0,1,7.14,7.115a18.276,18.276,0,0,1-3.162,3.035h4.59v2.363H.034Z" transform="translate(353.629 42.318)" fill="url(#linear-gradient)"/>
    <path id="Path-2" data-name="Path" d="M8.075,2.55h-5.3V4.9a2.471,2.471,0,0,1,.952-.612,3.627,3.627,0,0,1,1.326-.238,3.654,3.654,0,0,1,2.117.578A3.4,3.4,0,0,1,8.4,6.12a5.023,5.023,0,0,1,.391,1.989,4.354,4.354,0,0,1-1.122,3.153,4.185,4.185,0,0,1-3.162,1.165,5.546,5.546,0,0,1-2.363-.467A3.62,3.62,0,0,1,.6,10.659,3.767,3.767,0,0,1,0,8.738H2.839a1.53,1.53,0,0,0,.493.875A1.552,1.552,0,0,0,4.4,9.962a1.4,1.4,0,0,0,1.19-.51,2.178,2.178,0,0,0,.391-1.36,1.814,1.814,0,0,0-.408-1.275,1.54,1.54,0,0,0-1.19-.442,1.543,1.543,0,0,0-.952.28,1.308,1.308,0,0,0-.493.74H.136V0H8.075Z" transform="translate(364.152 42.573)" fill="url(#linear-gradient)"/>
    <path id="Shape" d="M8.874,11.594a2.8,2.8,0,0,1-.782-2.125,2.8,2.8,0,0,1,.782-2.125,2.829,2.829,0,0,1,2.04-.748,2.827,2.827,0,0,1,2.039.748,2.8,2.8,0,0,1,.782,2.125,2.8,2.8,0,0,1-.782,2.125,2.827,2.827,0,0,1-2.039.748A2.829,2.829,0,0,1,8.874,11.594Zm-6.681.562L8.738.187h2.805L5,12.155ZM.79,5A2.786,2.786,0,0,1,0,2.873,2.786,2.786,0,0,1,.79.748,2.861,2.861,0,0,1,2.839,0a2.829,2.829,0,0,1,2.04.748,2.8,2.8,0,0,1,.782,2.125A2.8,2.8,0,0,1,4.879,5a2.829,2.829,0,0,1-2.04.748A2.861,2.861,0,0,1,.79,5Z" transform="translate(374.318 42.845)" fill="url(#linear-gradient)"/>
  </g>
</svg>
